#!OML:ASF E:\Style4\Style4.ASF
:FULLY-SPECIFIED
:DEGREES
1994
root 2.50105 17.8186 -1.09531 3.6452 -7.2833 8.08563
lowerback 19.1887 -2.56946 3.22085
upperback 8.33024 -2.53425 8.58786
thorax -1.42779 -1.38004 7.94557
lowerneck 4.29868 -15.6585 -6.41169
upperneck -18.9145 -18.8891 21.7035
head -3.43056 -10.6102 8.13924
rclavicle 2.06736e-014 -3.18055e-014
rhumerus -42.4788 10.5674 -85.7173
rradius 88.9381
rwrist 24.8395
rhand 9.89906 -6.51694
rfingers 7.12502
rthumb 35.0306 -33.0658
lclavicle 2.06736e-014 -3.18055e-014
lhumerus -42.0202 -26.2333 106.112
lradius 54.7391
lwrist 23.726
lhand 4.84582 30.102
lfingers 7.12502
lthumb 30.2229 57.6487
rfemur -20.4717 12.2942 0.821301
rtibia 30.8698
rfoot -14.8082 -14.6107
rtoes -18.4409
lfemur -12.3763 2.50777 -36.6037
ltibia 19.3881
lfoot -13.948 8.64312
ltoes -3.53511
1995
root 2.50933 17.8092 -1.11051 3.5192 -7.9339 8.15926
lowerback 19.4449 -2.69466 3.12878
upperback 8.56718 -2.72231 8.50821
thorax -1.27916 -1.48304 7.9575
lowerneck 4.15542 -15.5341 -6.35677
upperneck -19.0604 -18.7677 21.2337
head -3.52946 -10.5247 8.00265
rclavicle -3.49861e-014 1.145e-013
rhumerus -42.0816 10.9674 -86.0028
rradius 89.2492
rwrist 24.9154
rhand 10.2801 -6.75798
rfingers 7.12502
rthumb 35.392 -33.2216
lclavicle -3.49861e-014 1.145e-013
lhumerus -42.0134 -26.0291 105.751
lradius 55.3309
lwrist 24.0011
lhand 4.65072 30.2488
lfingers 7.12502
lthumb 30.0368 57.8295
rfemur -20.8542 12.445 0.683812
rtibia 31.1065
rfoot -14.744 -14.2315
rtoes -18.4669
lfemur -12.6316 2.67132 -36.7146
ltibia 19.8159
lfoot -14.227 9.03441
ltoes -3.329
1996
root 2.51557 17.7989 -1.12272 3.3584 -8.62 8.14145
lowerback 19.7868 -2.7988 3.06516
upperback 8.77705 -2.86808 8.44807
thorax -1.20768 -1.56397 7.97373
lowerneck 3.99512 -15.4264 -6.31093
upperneck -19.0866 -18.6858 20.7383
head -3.58589 -10.4501 7.84639
rclavicle 5.88403e-014 8.5875e-014
rhumerus -41.726 11.4138 -86.274
rradius 89.3555
rwrist 25.1588
rhand 10.2195 -6.86804
rfingers 7.12502
rthumb 35.3345 -33.3453
lclavicle 5.88403e-014 8.5875e-014
lhumerus -42.131 -25.6447 105.415
lradius 55.9561
lwrist 24.0709
lhand 4.4896 30.1738
lfingers 7.12502
lthumb 29.883 57.7822
rfemur -21.1919 12.5925 0.669104
rtibia 31.3379
rfoot -14.6714 -13.7678
rtoes -18.3464
lfemur -12.8438 2.84831 -36.716
ltibia 20.2593
lfoot -14.5533 9.44215
ltoes -3.00558
1997
root 2.51924 17.7894 -1.13485 3.21381 -9.32253 8.05435
lowerback 20.1344 -2.87807 2.97698
upperback 8.96123 -2.98368 8.39127
thorax -1.16807 -1.63024 8.00373
lowerneck 3.87406 -15.3227 -6.22214
upperneck -19.0878 -18.6065 20.2535
head -3.64388 -10.3802 7.68988
rclavicle -7.31528e-014 7.63333e-014
rhumerus -41.413 11.8944 -86.5708
rradius 89.3359
rwrist 25.4625
rhand 9.72784 -6.80907
rfingers 7.12502
rthumb 34.8682 -33.3958
lclavicle -7.31528e-014 7.63333e-014
lhumerus -42.3506 -25.1306 105.027
lradius 56.6842
lwrist 23.9639
lhand 4.47317 30.1286
lfingers 7.12502
lthumb 29.8673 57.7398
rfemur -21.5281 12.7791 0.734306
rtibia 31.5544
rfoot -14.6817 -13.2734
rtoes -18.0941
lfemur -13.0833 3.0334 -36.6305
ltibia 20.7383
lfoot -14.8656 9.81737
ltoes -2.55552
1998
root 2.52122 17.7787 -1.14779 3.06868 -9.99316 8.05343
lowerback 20.4653 -2.9782 2.77623
upperback 9.15957 -3.15132 8.28824
thorax -1.09447 -1.72546 8.0568
lowerneck 3.70431 -15.1767 -6.14472
upperneck -19.0599 -18.4699 19.7972
head -3.68695 -10.281 7.53847
rclavicle -4.6118e-014 -2.22639e-014
rhumerus -41.0593 12.4287 -86.8935
rradius 89.3545
rwrist 25.738
rhand 9.39316 -6.61694
rfingers 7.12502
rthumb 34.5505 -33.2768
lclavicle -4.6118e-014 -2.22639e-014
lhumerus -42.4861 -24.5699 104.533
lradius 57.4741
lwrist 24.0101
lhand 4.50209 30.3498
lfingers 7.12502
lthumb 29.8949 57.9561
rfemur -21.841 12.8945 0.713261
rtibia 31.7465
rfoot -14.729 -12.7082
rtoes -17.7924
lfemur -13.369 3.23043 -36.6391
ltibia 21.3004
lfoot -15.1548 10.2104
ltoes -2.79029
1999
root 2.52132 17.7695 -1.16112 2.92 -10.6725 7.99166
lowerback 20.8233 -3.07571 2.61103
upperback 9.35865 -3.30827 8.18377
thorax -1.03533 -1.81464 8.08814
lowerneck 3.64294 -15.0262 -6.08105
upperneck -19.1334 -18.3193 19.3672
head -3.77486 -10.1832 7.4153
rclavicle -3.81667e-014 1.59028e-014
rhumerus -40.6799 12.9021 -87.1664
rradius 89.2947
rwrist 25.8732
rhand 9.23262 -6.18061
rfingers 7.12502
rthumb 34.3981 -32.8751
lclavicle -3.81667e-014 1.59028e-014
lhumerus -42.6386 -24.0464 104.062
lradius 58.2168
lwrist 24.0386
lhand 4.28753 30.2706
lfingers 7.12502
lthumb 29.6902 57.9135
rfemur -22.1314 13.0811 0.784765
rtibia 31.908
rfoot -14.6707 -12.3098
rtoes -18.1351
lfemur -13.6849 3.37896 -36.5666
ltibia 21.9289
lfoot -15.5261 10.7143
ltoes -3.14529
2000
root 2.51869 17.7609 -1.17479 2.74389 -11.4121 7.81667
lowerback 21.219 -3.13715 2.5561
upperback 9.57302 -3.39828 8.06998
thorax -0.992393 -1.8672 8.03372
lowerneck 3.60222 -14.9242 -5.97938
upperneck -19.1985 -18.2368 18.9111
head -3.86156 -10.1195 7.27807
rclavicle 1.11319e-014 -1.01778e-013
rhumerus -40.3203 13.1949 -87.4258
rradius 89.2395
rwrist 25.8357
rhand 9.10503 -5.65185
rfingers 7.12502
rthumb 34.277 -32.3737
lclavicle 1.11319e-014 -1.01778e-013
lhumerus -42.8867 -23.7028 103.626
lradius 58.9893
lwrist 23.9733
lhand 3.99696 29.9809
lfingers 7.12502
lthumb 29.4128 57.6729
rfemur -22.3944 13.3387 0.999843
rtibia 32.0557
rfoot -14.6012 -11.8983
rtoes -18.5671
lfemur -13.9766 3.56501 -36.3605
ltibia 22.5904
lfoot -15.9418 11.2224
ltoes -3.34984
2001
root 2.51505 17.7522 -1.1867 2.6105 -12.1811 7.59026
lowerback 21.5309 -3.17251 2.56653
upperback 9.80662 -3.45203 7.93734
thorax -0.895289 -1.90005 7.90543
lowerneck 3.52703 -14.849 -5.90159
upperneck -19.2332 -18.1852 18.5363
head -3.91719 -10.0735 7.1599
rclavicle 4.45278e-014 -3.49861e-014
rhumerus -39.9487 13.402 -87.7198
rradius 89.1393
rwrist 25.7474
rhand 8.74302 -5.2931
rfingers 7.12502
rthumb 33.9332 -32.0917
lclavicle 4.45278e-014 -3.49861e-014
lhumerus -43.1094 -23.4075 103.159
lradius 59.8089
lwrist 23.7816
lhand 3.76703 29.9018
lfingers 7.12502
lthumb 29.1933 57.6322
rfemur -22.6861 13.562 1.27157
rtibia 32.1862
rfoot -14.51 -11.4702
rtoes -18.7728
lfemur -14.3093 3.76064 -36.0957
ltibia 23.2705
lfoot -16.4225 11.6814
ltoes -3.01285
